<mxfile host="app.diagrams.net" modified="2021-02-01T18:47:39.320Z" agent="5.0 (X11; Linux x86_64) AppleWebKit/537.36 (KHTML, like Gecko) Chrome/88.0.4324.96 Safari/537.36" etag="B7VkQ_X_8ZzSVWFMMURG" version="14.2.9" type="github">
  <diagram id="fUwDNz3qoij1u1tpDORL" name="Page-1">
    <mxGraphModel dx="4598" dy="1137" grid="0" gridSize="10" guides="1" tooltips="1" connect="1" arrows="1" fold="1" page="1" pageScale="1" pageWidth="1600" pageHeight="900" math="0" shadow="0">
      <root>
        <mxCell id="0" />
        <mxCell id="1" parent="0" />
        <mxCell id="XjelaYb5U0j4AxR4dtYl-1" value="" style="group" vertex="1" connectable="0" parent="1">
          <mxGeometry x="25" y="85" width="1549.63" height="729.24" as="geometry" />
        </mxCell>
        <mxCell id="J26kYHq_NtT189oX3Vej-1" value="" style="rounded=1;whiteSpace=wrap;html=1;arcSize=8;" parent="XjelaYb5U0j4AxR4dtYl-1" vertex="1">
          <mxGeometry width="455.77352941176474" height="729.24" as="geometry" />
        </mxCell>
        <mxCell id="J26kYHq_NtT189oX3Vej-3" value="&lt;font style=&quot;font-size: 32px&quot;&gt;Community&lt;/font&gt;" style="text;html=1;strokeColor=none;fillColor=none;align=center;verticalAlign=middle;whiteSpace=wrap;rounded=0;" parent="XjelaYb5U0j4AxR4dtYl-1" vertex="1">
          <mxGeometry width="455.77352941176474" height="182.31" as="geometry" />
        </mxCell>
        <mxCell id="J26kYHq_NtT189oX3Vej-4" value="&lt;font style=&quot;font-size: 28px&quot;&gt;Free&lt;/font&gt;" style="text;html=1;strokeColor=none;fillColor=none;align=center;verticalAlign=middle;whiteSpace=wrap;rounded=0;" parent="XjelaYb5U0j4AxR4dtYl-1" vertex="1">
          <mxGeometry y="546.93" width="455.77352941176474" height="182.31" as="geometry" />
        </mxCell>
        <mxCell id="J26kYHq_NtT189oX3Vej-6" value="&lt;font style=&quot;font-size: 30px&quot;&gt;&lt;br&gt;&lt;/font&gt;&lt;ul style=&quot;font-size: 30px&quot;&gt;&lt;li&gt;&lt;font style=&quot;font-size: 30px&quot;&gt;Data hosting&lt;/font&gt;&lt;/li&gt;&lt;li&gt;&lt;font style=&quot;font-size: 30px&quot;&gt;Unlimited public projects&lt;/font&gt;&lt;/li&gt;&lt;li&gt;&lt;font style=&quot;font-size: 30px&quot;&gt;Unlimited private projects&lt;/font&gt;&lt;/li&gt;&lt;/ul&gt;" style="text;html=1;strokeColor=none;spacing=5;spacingTop=-20;whiteSpace=wrap;overflow=hidden;rounded=0;fillColor=#E6E6E6;" parent="XjelaYb5U0j4AxR4dtYl-1" vertex="1">
          <mxGeometry y="159.52125" width="455.77352941176474" height="410.19749999999993" as="geometry" />
        </mxCell>
        <mxCell id="J26kYHq_NtT189oX3Vej-7" value="" style="rounded=1;whiteSpace=wrap;html=1;arcSize=8;" parent="XjelaYb5U0j4AxR4dtYl-1" vertex="1">
          <mxGeometry x="546.9282352941176" width="455.77352941176474" height="729.24" as="geometry" />
        </mxCell>
        <mxCell id="J26kYHq_NtT189oX3Vej-8" value="&lt;font style=&quot;font-size: 32px&quot;&gt;Pro&lt;/font&gt;" style="text;html=1;strokeColor=none;fillColor=none;align=center;verticalAlign=middle;whiteSpace=wrap;rounded=0;" parent="XjelaYb5U0j4AxR4dtYl-1" vertex="1">
          <mxGeometry x="546.9282352941176" width="455.77352941176474" height="182.31" as="geometry" />
        </mxCell>
        <mxCell id="J26kYHq_NtT189oX3Vej-9" value="&lt;font style=&quot;font-size: 22px&quot;&gt;billed per month&lt;br&gt;&lt;/font&gt;" style="text;html=1;strokeColor=none;fillColor=none;align=center;verticalAlign=middle;whiteSpace=wrap;rounded=0;" parent="XjelaYb5U0j4AxR4dtYl-1" vertex="1">
          <mxGeometry x="546.9282352941176" y="546.93" width="455.77352941176474" height="182.31" as="geometry" />
        </mxCell>
        <mxCell id="J26kYHq_NtT189oX3Vej-10" value="&lt;font style=&quot;font-size: 30px&quot;&gt;&lt;br&gt;&lt;/font&gt;&lt;ul style=&quot;font-size: 30px&quot;&gt;&lt;li&gt;&lt;font style=&quot;font-size: 30px&quot;&gt;Everything included in Community&lt;br&gt;&lt;/font&gt;&lt;/li&gt;&lt;li&gt;&lt;font style=&quot;font-size: 30px&quot;&gt;&lt;font style=&quot;font-size: 30px&quot;&gt;Unlimited synchronizations&lt;/font&gt;&lt;br&gt;&lt;/font&gt;&lt;/li&gt;&lt;/ul&gt;" style="text;html=1;strokeColor=none;spacing=5;spacingTop=-20;whiteSpace=wrap;overflow=hidden;rounded=0;fillColor=#E6E6E6;" parent="XjelaYb5U0j4AxR4dtYl-1" vertex="1">
          <mxGeometry x="546.9282352941176" y="159.52125" width="455.77352941176474" height="410.19749999999993" as="geometry" />
        </mxCell>
        <mxCell id="J26kYHq_NtT189oX3Vej-11" value="" style="rounded=1;whiteSpace=wrap;html=1;arcSize=8;" parent="XjelaYb5U0j4AxR4dtYl-1" vertex="1">
          <mxGeometry x="1093.8564705882352" width="455.77352941176474" height="729.24" as="geometry" />
        </mxCell>
        <mxCell id="J26kYHq_NtT189oX3Vej-12" value="&lt;font style=&quot;font-size: 32px&quot;&gt;Team&lt;/font&gt;" style="text;html=1;strokeColor=none;fillColor=none;align=center;verticalAlign=middle;whiteSpace=wrap;rounded=0;" parent="XjelaYb5U0j4AxR4dtYl-1" vertex="1">
          <mxGeometry x="1093.8564705882352" width="455.77352941176474" height="182.31" as="geometry" />
        </mxCell>
        <mxCell id="J26kYHq_NtT189oX3Vej-13" value="&lt;font style=&quot;font-size: 21px&quot;&gt;billed per user / month&lt;br&gt;&lt;/font&gt;" style="text;html=1;strokeColor=none;fillColor=none;align=center;verticalAlign=middle;whiteSpace=wrap;rounded=0;" parent="XjelaYb5U0j4AxR4dtYl-1" vertex="1">
          <mxGeometry x="1093.8564705882352" y="546.93" width="455.77352941176474" height="182.31" as="geometry" />
        </mxCell>
        <mxCell id="J26kYHq_NtT189oX3Vej-14" value="&lt;font style=&quot;font-size: 30px&quot;&gt;&lt;br&gt;&lt;/font&gt;&lt;ul style=&quot;font-size: 30px&quot;&gt;&lt;li&gt;&lt;font style=&quot;font-size: 30px&quot;&gt;Everything included in Pro&lt;br&gt;&lt;/font&gt;&lt;/li&gt;&lt;li&gt;&lt;font style=&quot;font-size: 30px&quot;&gt;Collaboration on private projects&lt;/font&gt;&lt;/li&gt;&lt;li&gt;&lt;font style=&quot;font-size: 30px&quot;&gt;Team management&lt;/font&gt;&lt;/li&gt;&lt;li&gt;&lt;font style=&quot;font-size: 30px&quot;&gt;&lt;font style=&quot;font-size: 30px&quot;&gt;Only active users are billed&lt;/font&gt;&lt;br&gt;&lt;/font&gt;&lt;/li&gt;&lt;/ul&gt;" style="text;html=1;strokeColor=none;spacing=5;spacingTop=-20;whiteSpace=wrap;overflow=hidden;rounded=0;fillColor=#E6E6E6;" parent="XjelaYb5U0j4AxR4dtYl-1" vertex="1">
          <mxGeometry x="1093.8564705882352" y="159.52125" width="455.77352941176474" height="410.19749999999993" as="geometry" />
        </mxCell>
      </root>
    </mxGraphModel>
  </diagram>
</mxfile>
